HIERARCHY
ROOT hip
{
  OFFSET 0 0 0
  CHANNELS 6 Xposition Yposition Zposition Zrotation Xrotation Yrotation
  JOINT abdomen
  {
    OFFSET 0 7.2397 0
    CHANNELS 6 Xposition Yposition Zposition Zrotation Xrotation Yrotation
    JOINT chest
    {
      OFFSET 0 16.5459 0
      CHANNELS 6 Xposition Yposition Zposition Zrotation Xrotation Yrotation
      JOINT neck
      {
        OFFSET 0 34.2149 0
        CHANNELS 6 Xposition Yposition Zposition Zrotation Xrotation Yrotation
        End Site
        {
          OFFSET 0 6.2923 0
        }
      }
      JOINT lCollar
      {
        OFFSET 4.0639 26.6115 -1.1234
        CHANNELS 6 Xposition Yposition Zposition Zrotation Xrotation Yrotation
        JOINT lShldr
        {
          OFFSET 14.1772 0 0
          CHANNELS 6 Xposition Yposition Zposition Zrotation Xrotation Yrotation
          JOINT lForeArm
          {
            OFFSET 26.1234 0 0
            CHANNELS 6 Xposition Yposition Zposition Zrotation Xrotation Yrotation
            JOINT lHand
            {
              OFFSET 27.7188 0 0
              CHANNELS 6 Xposition Yposition Zposition Zrotation Xrotation Yrotation
              JOINT lThumb1
              {
                OFFSET 2.2979 -0.4685 1.8313
                CHANNELS 6 Xposition Yposition Zposition Zrotation Xrotation Yrotation
                JOINT lThumb2
                {
                  OFFSET 5.2953 0 0
                  CHANNELS 6 Xposition Yposition Zposition Zrotation Xrotation Yrotation
                  End Site
                  {
                    OFFSET 3.0181 0 0
                  }
                }
              }
              JOINT lIndex1
              {
                OFFSET 9.3793 0.299 2.5924
                CHANNELS 6 Xposition Yposition Zposition Zrotation Xrotation Yrotation
                JOINT lIndex2
                {
                  OFFSET 4.3461 0 0
                  CHANNELS 6 Xposition Yposition Zposition Zrotation Xrotation Yrotation
                  End Site
                  {
                    OFFSET 2.1666 0 0
                  }
                }
              }
              JOINT lMid1
              {
                OFFSET 9.4769 0.8376 0.2947
                CHANNELS 6 Xposition Yposition Zposition Zrotation Xrotation Yrotation
                JOINT lMid2
                {
                  OFFSET 4.7721 0 0
                  CHANNELS 6 Xposition Yposition Zposition Zrotation Xrotation Yrotation
                  End Site
                  {
                    OFFSET 2.8722 0 0
                  }
                }
              }
              JOINT lRing1
              {
                OFFSET 8.6586 1.0176 -1.7016
                CHANNELS 6 Xposition Yposition Zposition Zrotation Xrotation Yrotation
                JOINT lRing2
                {
                  OFFSET 4.5461 0 0
                  CHANNELS 6 Xposition Yposition Zposition Zrotation Xrotation Yrotation
                  End Site
                  {
                    OFFSET 2.506 0 0
                  }
                }
              }
              JOINT lPinky1
              {
                OFFSET 7.69 0.6618 -3.9096
                CHANNELS 6 Xposition Yposition Zposition Zrotation Xrotation Yrotation
                JOINT lPinky2
                {
                  OFFSET 3.2119 0 0
                  CHANNELS 6 Xposition Yposition Zposition Zrotation Xrotation Yrotation
                  End Site
                  {
                    OFFSET 1.924 0 0
                  }
                }
              }
            }
          }
        }
      }
      JOINT rCollar
      {
        OFFSET -4.0677 26.6109 -1.1234
        CHANNELS 6 Xposition Yposition Zposition Zrotation Xrotation Yrotation
        JOINT rShldr
        {
          OFFSET -14.1772 0 0
          CHANNELS 6 Xposition Yposition Zposition Zrotation Xrotation Yrotation
          JOINT rForeArm
          {
            OFFSET -26.1234 0 0
            CHANNELS 6 Xposition Yposition Zposition Zrotation Xrotation Yrotation
            JOINT rHand
            {
              OFFSET -27.7188 0 0
              CHANNELS 6 Xposition Yposition Zposition Zrotation Xrotation Yrotation
              JOINT rThumb1
              {
                OFFSET -2.2979 -0.4684 1.8313
                CHANNELS 6 Xposition Yposition Zposition Zrotation Xrotation Yrotation
                JOINT rThumb2
                {
                  OFFSET -5.2953 0 0
                  CHANNELS 6 Xposition Yposition Zposition Zrotation Xrotation Yrotation
                  End Site
                  {
                    OFFSET -3.0181 0 0
                  }
                }
              }
              JOINT rIndex1
              {
                OFFSET -9.3793 0.2991 2.5924
                CHANNELS 6 Xposition Yposition Zposition Zrotation Xrotation Yrotation
                JOINT rIndex2
                {
                  OFFSET -4.3461 0 0
                  CHANNELS 6 Xposition Yposition Zposition Zrotation Xrotation Yrotation
                  End Site
                  {
                    OFFSET -2.1666 0 0
                  }
                }
              }
              JOINT rMid1
              {
                OFFSET -9.4769 0.8376 0.2947
                CHANNELS 6 Xposition Yposition Zposition Zrotation Xrotation Yrotation
                JOINT rMid2
                {
                  OFFSET -4.7721 0 0
                  CHANNELS 6 Xposition Yposition Zposition Zrotation Xrotation Yrotation
                  End Site
                  {
                    OFFSET -2.8722 0 0
                  }
                }
              }
              JOINT rRing1
              {
                OFFSET -8.6586 1.0176 -1.7016
                CHANNELS 6 Xposition Yposition Zposition Zrotation Xrotation Yrotation
                JOINT rRing2
                {
                  OFFSET -4.5461 0 0
                  CHANNELS 6 Xposition Yposition Zposition Zrotation Xrotation Yrotation
                  End Site
                  {
                    OFFSET -2.506 0 0
                  }
                }
              }
              JOINT rPinky1
              {
                OFFSET -7.69 0.6618 -3.9096
                CHANNELS 6 Xposition Yposition Zposition Zrotation Xrotation Yrotation
                JOINT rPinky2
                {
                  OFFSET -3.2119 0 0
                  CHANNELS 6 Xposition Yposition Zposition Zrotation Xrotation Yrotation
                  End Site
                  {
                    OFFSET -1.924 0 0
                  }
                }
              }
            }
          }
        }
      }
    }
  }
  JOINT lThigh
  {
    OFFSET 8.7379 -0.0029 0.0005
    CHANNELS 6 Xposition Yposition Zposition Zrotation Xrotation Yrotation
    JOINT lShin
    {
      OFFSET 0 -46.6502 1.2741
      CHANNELS 6 Xposition Yposition Zposition Zrotation Xrotation Yrotation
      JOINT lFoot
      {
        OFFSET 0 -40.1476 0
        CHANNELS 6 Xposition Yposition Zposition Zrotation Xrotation Yrotation
        End Site
        {
          OFFSET 0 -8.8766 14.2344
        }
      }
    }
  }
  JOINT rThigh
  {
    OFFSET -8.7379 0.0029 -0.0005
    CHANNELS 6 Xposition Yposition Zposition Zrotation Xrotation Yrotation
    JOINT rShin
    {
      OFFSET 0 -46.6502 1.2741
      CHANNELS 6 Xposition Yposition Zposition Zrotation Xrotation Yrotation
      JOINT rFoot
      {
        OFFSET 0 -40.1476 0
        CHANNELS 6 Xposition Yposition Zposition Zrotation Xrotation Yrotation
        End Site
        {
          OFFSET 0 -8.8766 14.2344
        }
      }
    }
  }
}
MOTION
Frames:	6
Frame Time:	0.0333333
-1.25598 89.3449 0.187247 -1.96881 -4.00534 -42.7059 0 7.2397 -8.88178e-16 -0.285577 7.28614 0.999125 -2.22045e-16 16.5459 8.88178e-16 -0.562021 16.4281 1.82513 -1.11022e-15 34.2149 0 12.4739 33.9843 -33.311 4.0639 26.6115 -1.1234 -0.644775 -3.86364 1.38491 14.1772 -2.84217e-14 -3.55271e-15 -66.0237 -5.48562 6.49527 26.1234 0 0 -3.51807 2.74164 -56.3347 27.7188 1.42109e-14 -7.10543e-15 16.7453 -0.724416 -4.19112 2.2979 -0.4685 1.8313 -30.6293 0.322359 -10.9902 5.2953 0 0 3.1195 3.09653 8.37536 9.3793 0.299 2.5924 -31.6583 -86.9168 0.638245 4.3461 0 7.10543e-15 1.76077 0.118303 50.7444 9.4769 0.8376 0.2947 102.048 -78.7121 143.634 4.7721 0 0 2.75592 1.13698 56.2658 8.6586 1.0176 -1.7016 91.2723 -78.758 148.24 4.5461 0 -3.55271e-15 -2.2284 -0.979333 66.8144 7.69 0.6618 -3.9096 121.344 -72.8302 -177.459 3.2119 -7.10543e-15 -3.55271e-15 6.69326 8.24275 72.8872 -4.0677 26.6109 -1.1234 2.41908 -2.80718 4.31321 -14.1772 2.84217e-14 -7.10543e-15 67.8035 -12.7134 -23.734 -26.1234 0 0 4.23075 -0.483295 60.8968 -27.7188 -7.10543e-15 0 -10.8714 2.3371 6.38172 -2.2979 -0.4684 1.8313 39.2828 -8.16123 16.1167 -5.2953 3.55271e-15 0 -3.46394 3.80781 -20.1812 -9.3793 0.2991 2.5924 -59.2832 -83.414 -100.156 -4.3461 1.42109e-14 3.55271e-15 -2.66174 0.611509 -60.7306 -9.4769 0.8376 0.2947 -132.313 -83.8565 -169.543 -4.7721 -7.10543e-15 3.55271e-15 -4.2698 3.17518 -82.4778 -8.6586 1.0176 -1.7016 -158.433 -88.7392 156.327 -4.5461 0 -7.10543e-15 3.74042 -2.90028 -89.4974 -7.69 0.6618 -3.9096 -152.888 -75.1582 161.497 -3.2119 0 1.77636e-15 -3.96217 9.08543 -93.0444 8.7379 -0.0029 0.0005 11.8925 -21.9118 18.3314 -1.77636e-15 -46.6502 1.2741 9.87706 37.3873 -16.2412 -3.55271e-15 -40.1476 1.77636e-15 -9.86931 -12.1832 6.49026 -8.7379 0.0029 -0.0005 -14.7477 3.77814 -22.9805 0 -46.6502 1.2741 -11.9426 32.5179 23.9171 0 -40.1476 0 9.08705 -30.6943 -5.53362 
-1.29187 89.5046 0.190041 -2.04561 -3.88885 -46.5414 4.44089e-16 7.2397 8.88178e-16 -0.160632 7.44441 0.082379 4.44089e-16 16.5459 8.88178e-16 -0.218368 16.7478 -0.0466987 -8.88178e-16 34.2149 -7.10543e-15 11.8971 33.6615 -32.9077 4.0639 26.6115 -1.1234 -0.876478 -3.99054 0.378182 14.1772 0 -7.10543e-15 -65.9625 -6.21302 8.1777 26.1234 0 7.10543e-15 -3.55876 2.56385 -57.4234 27.7188 1.42109e-14 0 16.7042 -0.923587 -4.67636 2.2979 -0.4685 1.8313 -30.2764 0.0647762 -11.1772 5.2953 0 -1.42109e-14 3.15872 2.92212 8.51017 9.3793 0.299 2.5924 -46.5732 -86.9751 -16.3582 4.3461 -1.42109e-14 0 1.79743 0.161985 48.2236 9.4769 0.8376 0.2947 102.074 -78.6304 141.539 4.7721 -7.10543e-15 0 2.69618 1.05304 53.7606 8.6586 1.0176 -1.7016 89.2787 -78.4951 144.463 4.5461 0 0 -2.20417 -0.921109 64.4026 7.69 0.6618 -3.9096 118.227 -72.7064 177.248 3.2119 0 0 6.53115 7.76051 70.5367 -4.0677 26.6109 -1.1234 2.25094 -2.67993 2.96318 -14.1772 0 0 67.8046 -12.3375 -24.0369 -26.1234 -1.42109e-14 0 4.08788 -0.0344669 61.7046 -27.7188 7.10543e-15 -7.10543e-15 -12.0916 2.33561 6.51596 -2.2979 -0.4684 1.8313 39.3499 -8.13413 15.9711 -5.2953 0 1.42109e-14 -3.43507 3.85134 -20.1834 -9.3793 0.2991 2.5924 -52.5893 -83.3415 -95.2447 -4.3461 7.10543e-15 0 -2.66093 0.609321 -61.7001 -9.4769 0.8376 0.2947 -131.5 -83.8424 -169.912 -4.7721 7.10543e-15 3.55271e-15 -4.27957 3.26141 -83.895 -8.6586 1.0176 -1.7016 -159.006 -88.5842 154.526 -4.5461 0 3.55271e-15 3.74107 -2.97426 -90.9221 -7.69 0.6618 -3.9096 -151.838 -74.9575 161.477 -3.2119 -7.10543e-15 0 -3.97063 9.22471 -94.0313 8.7379 -0.0029 0.0005 12.8223 -20.6128 19.2553 0 -46.6502 1.2741 9.10066 37.2284 -13.1772 0 -40.1476 3.55271e-15 -10.4996 -12.2843 6.411 -8.7379 0.0029 -0.0005 -15.1827 2.13504 -23.1212 0 -46.6502 1.2741 -12.8408 32.6722 25.4574 0 -40.1476 0 9.40743 -30.1339 -5.3339 
-1.32586 89.6479 0.193214 -2.08075 -3.8083 -50.3628 0 7.2397 8.88178e-16 -0.0643842 7.5604 -0.823197 2.22045e-16 16.5459 0 0.0871877 16.9796 -1.88725 -1.11022e-16 34.2149 -7.10543e-15 11.0217 33.311 -32.25 4.0639 26.6115 -1.1234 -1.07017 -4.10292 -0.531505 14.1772 -2.84217e-14 0 -65.7104 -6.93606 9.81577 26.1234 0 -7.10543e-15 -3.64594 2.21013 -58.4464 27.7188 0 7.10543e-15 16.5343 -0.983383 -4.34055 2.2979 -0.4685 1.8313 -29.9847 -0.148569 -11.5131 5.2953 7.10543e-15 -1.42109e-14 3.18006 2.73906 8.70358 9.3793 0.299 2.5924 -61.5939 -86.8515 -33.8004 4.3461 0 0 1.84154 0.209862 45.3471 9.4769 0.8376 0.2947 102.179 -78.5759 139.16 4.7721 0 0 2.62487 0.962016 50.9571 8.6586 1.0176 -1.7016 87.1814 -78.2415 140.151 4.5461 0 -3.55271e-15 -2.17373 -0.856359 61.6672 7.69 0.6618 -3.9096 115.099 -72.4946 171.493 3.2119 0 -7.10543e-15 6.31974 7.21275 67.8257 -4.0677 26.6109 -1.1234 2.01812 -2.57884 1.90545 -14.1772 0 -7.10543e-15 67.6652 -12.1771 -24.7518 -26.1234 -1.42109e-14 0 3.93417 0.293634 62.5219 -27.7188 -1.42109e-14 0 -13.3188 2.25497 6.69297 -2.2979 -0.4684 1.8313 39.5723 -7.80441 15.7697 -5.2953 0 1.42109e-14 -3.57104 3.85584 -20.2045 -9.3793 0.2991 2.5924 -45.6024 -83.1257 -89.9196 -4.3461 7.10543e-15 7.10543e-15 -2.66028 0.607268 -62.5996 -9.4769 0.8376 0.2947 -130.642 -83.8124 -170.089 -4.7721 0 0 -4.28693 3.34428 -85.2538 -8.6586 1.0176 -1.7016 -159.194 -88.4579 153.364 -4.5461 0 3.55271e-15 3.7395 -3.04144 -92.2168 -7.69 0.6618 -3.9096 -150.923 -74.7781 161.432 -3.2119 0 -1.77636e-15 -3.95362 9.47454 -95.5593 8.7379 -0.0029 0.0005 13.5787 -19.2687 20.0368 0 -46.6502 1.2741 8.3182 37.0322 -10.0361 0 -40.1476 0 -11.1904 -12.3392 6.32998 -8.7379 0.0029 -0.0005 -15.5375 0.404726 -23.1863 3.55271e-15 -46.6502 1.2741 -13.764 32.9112 26.7261 3.55271e-15 -40.1476 -3.55271e-15 9.82308 -29.4847 -5.13093 
-1.3461 89.774 0.235703 -2.04607 -3.80953 -54.1171 -4.44089e-16 7.2397 -8.88178e-16 -0.0542949 7.64661 -1.5175 -4.44089e-16 16.5459 8.88178e-16 0.228987 17.1512 -3.28078 -6.66134e-16 34.2149 0 10.3099 32.8122 -31.7837 4.0639 26.6115 -1.1234 -1.26089 -4.23112 -1.57164 14.1772 0 7.10543e-15 -65.1159 -7.4606 11.1308 26.1234 0 0 -3.83406 1.78425 -59.335 27.7188 0 7.10543e-15 16.992 -1.20145 -3.47426 2.2979 -0.4685 1.8313 -29.7549 -0.369118 -11.8795 5.2953 0 0 3.17223 2.58008 8.91245 9.3793 0.299 2.5924 -74.6241 -86.5778 -49.5391 4.3461 7.10543e-15 -1.42109e-14 1.89155 0.258664 42.2535 9.4769 0.8376 0.2947 102.4 -78.5561 136.578 4.7721 -1.42109e-14 0 2.5414 0.865825 47.8757 8.6586 1.0176 -1.7016 85.0213 -78.0304 135.529 4.5461 -1.42109e-14 -3.55271e-15 -2.13657 -0.786643 58.6378 7.69 0.6618 -3.9096 112.192 -72.1924 165.628 3.2119 7.10543e-15 -3.55271e-15 6.05717 6.62136 64.8401 -4.0677 26.6109 -1.1234 2.01382 -2.42582 0.365433 -14.1772 0 -7.10543e-15 67.19 -12.0935 -25.4192 -26.1234 0 -1.42109e-14 3.92491 0.466248 63.3296 -27.7188 0 -7.10543e-15 -14.2329 2.02206 6.92454 -2.2979 -0.4684 1.8313 39.4713 -8.04756 15.6719 -5.2953 0 0 -3.38228 3.90763 -20.2535 -9.3793 0.2991 2.5924 -38.3608 -82.8395 -84.3801 -4.3461 0 0 -2.65969 0.605397 -63.4524 -9.4769 0.8376 0.2947 -129.9 -83.7952 -170.369 -4.7721 -7.10543e-15 0 -4.29208 3.42535 -86.5795 -8.6586 1.0176 -1.7016 -159.167 -88.3191 152.3 -4.5461 0 -3.55271e-15 3.73698 -3.11234 -93.5842 -7.69 0.6618 -3.9096 -150.339 -74.5959 160.907 -3.2119 -7.10543e-15 -1.77636e-15 -3.92946 9.68066 -96.8632 8.7379 -0.0029 0.0005 14.0814 -17.9226 20.657 0 -46.6502 1.2741 7.53034 36.83 -6.84072 3.55271e-15 -40.1476 0 -11.8815 -12.388 6.25074 -8.7379 0.0029 -0.0005 -15.8924 -1.37417 -23.2299 0 -46.6502 1.2741 -14.722 33.226 27.7756 3.55271e-15 -40.1476 0 10.2359 -28.8147 -4.9475 
-1.40996 89.8926 0.293644 -2.12645 -3.89178 -57.6714 4.44089e-16 7.2397 -8.88178e-16 -0.138098 7.70743 -2.0354 4.44089e-16 16.5459 8.88178e-16 0.168695 17.2751 -4.29181 1.66533e-16 34.2149 -7.10543e-15 9.74411 32.422 -31.4054 4.0639 26.6115 -1.1234 -1.31745 -4.35197 -2.46782 14.1772 0 -3.55271e-15 -64.3774 -7.946 11.9956 26.1234 0 0 -3.90657 1.35277 -60.1426 27.7188 0 0 18.3915 -1.48098 -3.48043 2.2979 -0.4685 1.8313 -29.5347 -0.66108 -12.4757 5.2953 0 1.42109e-14 3.16962 2.41004 9.12597 9.3793 0.299 2.5924 -85.0474 -86.0801 -62.9784 4.3461 0 0 1.94715 0.307307 38.9842 9.4769 0.8376 0.2947 102.762 -78.5948 133.896 4.7721 7.10543e-15 0 2.44773 0.769291 44.6236 8.6586 1.0176 -1.7016 82.9303 -77.7842 130.604 4.5461 -7.10543e-15 0 -2.09451 -0.71707 55.5249 7.69 0.6618 -3.9096 109.557 -71.7644 159.811 3.2119 0 0 5.75431 6.02602 61.7587 -4.0677 26.6109 -1.1234 2.21158 -2.23262 -1.63051 -14.1772 -2.84217e-14 0 66.2268 -11.5278 -25.7246 -26.1234 -1.42109e-14 0 4.03631 1.19383 63.5174 -27.7188 0 -7.10543e-15 -14.7562 1.97219 6.86166 -2.2979 -0.4684 1.8313 39.2951 -8.37197 15.5561 -5.2953 0 0 -3.16657 3.98677 -20.2791 -9.3793 0.2991 2.5924 -31.4218 -82.4659 -78.9849 -4.3461 -3.55271e-15 3.55271e-15 -2.6592 0.603547 -64.2487 -9.4769 0.8376 0.2947 -129.259 -83.7944 -170.733 -4.7721 -7.10543e-15 0 -4.29499 3.49791 -87.7656 -8.6586 1.0176 -1.7016 -158.495 -88.1908 151.982 -4.5461 0 0 3.73446 -3.17594 -94.8057 -7.69 0.6618 -3.9096 -149.483 -74.4144 160.776 -3.2119 0 0 -3.89732 9.89708 -98.2581 8.7379 -0.0029 0.0005 14.464 -16.4492 21.2063 3.55271e-15 -46.6502 1.2741 6.76865 36.585 -3.82947 0 -40.1476 -1.77636e-15 -12.5172 -12.4605 6.17281 -8.7379 0.0029 -0.0005 -16.0068 -2.9139 -23.064 0 -46.6502 1.2741 -15.7147 33.4535 28.385 -7.10543e-15 -40.1476 0 10.7769 -28.156 -4.76805 
-1.45539 90.0101 0.37245 -2.15534 -3.99728 -61.2494 0 7.2397 -8.88178e-16 -0.231439 7.71677 -2.48532 -4.44089e-16 16.5459 8.88178e-16 0.101618 17.297 -5.16426 5.55112e-16 34.2149 0 9.22786 32.0809 -30.9957 4.0639 26.6115 -1.1234 -1.41234 -4.45265 -3.27066 14.1772 0 -7.10543e-15 -63.2395 -8.29481 12.7739 26.1234 0 7.10543e-15 -4.01354 1.07506 -60.6726 27.7188 0 0 19.445 -1.6809 -3.26301 2.2979 -0.4685 1.8313 -29.4091 -0.88992 -12.9531 5.2953 0 -1.42109e-14 3.16362 2.29703 9.24926 9.3793 0.299 2.5924 -92.3332 -85.4699 -73.5312 4.3461 0 -1.42109e-14 2.00582 0.352917 35.6958 9.4769 0.8376 0.2947 103.353 -78.7059 131.191 4.7721 0 0 2.34792 0.677358 41.3443 8.6586 1.0176 -1.7016 81.0556 -77.5015 125.546 4.5461 0 -7.10543e-15 -2.04645 -0.646806 52.2637 7.69 0.6618 -3.9096 107.287 -71.2096 154.188 3.2119 0 -3.55271e-15 5.41012 5.43156 58.5899 -4.0677 26.6109 -1.1234 2.84186 -2.09713 -3.26741 -14.1772 0 0 64.8462 -11.1093 -26.209 -26.1234 1.42109e-14 0 4.14663 1.6827 63.8221 -27.7188 -1.42109e-14 7.10543e-15 -15.5754 1.69428 7.11453 -2.2979 -0.4684 1.8313 39.397 -8.20235 15.43 -5.2953 -7.10543e-15 1.42109e-14 -3.22544 3.99541 -20.3048 -9.3793 0.2991 2.5924 -24.9223 -82.0109 -73.9197 -4.3461 -3.55271e-15 3.55271e-15 -2.65884 0.601872 -64.9985 -9.4769 0.8376 0.2947 -128.605 -83.7777 -170.824 -4.7721 0 -7.10543e-15 -4.29607 3.56395 -88.8439 -8.6586 1.0176 -1.7016 -158.254 -88.0828 151.404 -4.5461 0 0 3.73041 -3.23352 -95.9163 -7.69 0.6618 -3.9096 -148.635 -74.2592 160.827 -3.2119 7.10543e-15 7.10543e-15 -3.87056 10.0457 -99.2211 8.7379 -0.0029 0.0005 14.6631 -14.9595 21.6497 -3.55271e-15 -46.6502 1.2741 5.97236 36.2512 -0.658205 -3.55271e-15 -40.1476 -1.77636e-15 -13.1892 -12.5311 6.09068 -8.7379 0.0029 -0.0005 -16.0625 -4.48104 -22.7803 0 -46.6502 1.2741 -16.6894 33.5983 28.8494 0 -40.1476 0 11.2635 -27.4767 -4.62834 
